<?xml version="1.0" encoding="UTF-8"?>
<mxfile host="app.diagrams.net">
  <diagram id="archivalPolicySwimlanes" name="Archival Policy Process (Swimlanes)">
    <mxGraphModel dx="1422" dy="794" grid="1" gridSize="10" guides="1" tooltips="1" connect="1" arrows="1" fold="1" page="1" pageScale="1" pageWidth="1600" pageHeight="1200" math="0" shadow="0">
      <root>
        <mxCell id="0"/>
        <mxCell id="1" parent="0"/>

        <!-- Swimlanes (horizontal) -->
            <mxCell id="laneGov" value="Data Governance" style="swimlane;horizontal=1;startSize=30;fillColor=#f5f5f5;strokeColor=#999;" vertex="1" parent="1">
      <mxGeometry x="20" y="20" width="1560" height="240" as="geometry"/>
    </mxCell>
            <mxCell id="laneCust" value="Data Custodians" style="swimlane;horizontal=1;startSize=30;fillColor=#f5f5f5;strokeColor=#999;" vertex="1" parent="1">
      <mxGeometry x="20" y="280" width="1560" height="240" as="geometry"/>
    </mxCell>
            <mxCell id="laneArch" value="Archival Team" style="swimlane;horizontal=1;startSize=30;fillColor=#f5f5f5;strokeColor=#999;" vertex="1" parent="1">
      <mxGeometry x="20" y="540" width="1560" height="280" as="geometry"/>
    </mxCell>
            <mxCell id="laneLegal" value="Legal / Compliance" style="swimlane;horizontal=1;startSize=30;fillColor=#f5f5f5;strokeColor=#999;" vertex="1" parent="1">
      <mxGeometry x="20" y="840" width="1560" height="240" as="geometry"/>
    </mxCell>

        <!-- Governance nodes -->
            <mxCell id="P1" value="Define / Update Retention &amp; Archival Policies" style="rounded=1;whiteSpace=wrap;html=1;" vertex="1" parent="laneGov">
      <mxGeometry x="40" y="60" width="300" height="60" as="geometry"/>
    </mxCell>
            <mxCell id="P4" value="Publish Policy &amp; Notify Stakeholders" style="rounded=1;whiteSpace=wrap;html=1;" vertex="1" parent="laneGov">
      <mxGeometry x="380" y="60" width="300" height="60" as="geometry"/>
    </mxCell>
            <mxCell id="P3" value="Approve Purge Requests" style="rounded=1;whiteSpace=wrap;html=1;" vertex="1" parent="laneGov">
      <mxGeometry x="720" y="60" width="220" height="60" as="geometry"/>
    </mxCell>

        <!-- Custodian nodes -->
            <mxCell id="C1" value="Inventory &amp; Classify Records (Map to Record Classes)" style="rounded=1;whiteSpace=wrap;html=1;" vertex="1" parent="laneCust">
      <mxGeometry x="40" y="60" width="360" height="60" as="geometry"/>
    </mxCell>
            <mxCell id="C2" value="Map Datasets to Policies (Data-to-Policy Matrix)" style="rounded=1;whiteSpace=wrap;html=1;" vertex="1" parent="laneCust">
      <mxGeometry x="440" y="60" width="360" height="60" as="geometry"/>
    </mxCell>
            <mxCell id="C3" value="Validate Associations &amp; Metadata Completeness" style="rounded=1;whiteSpace=wrap;html=1;" vertex="1" parent="laneCust">
      <mxGeometry x="840" y="60" width="360" height="60" as="geometry"/>
    </mxCell>
            <mxCell id="C4" value="Validate Purge Candidates (Scope Sign-off)" style="rounded=1;whiteSpace=wrap;html=1;" vertex="1" parent="laneCust">
      <mxGeometry x="1240" y="60" width="280" height="60" as="geometry"/>
    </mxCell>

        <!-- Archival Team nodes -->
            <mxCell id="A1" value="Translate Policies to Technical Rules (Retention, DHO, Hold Flags)" style="rounded=1;whiteSpace=wrap;html=1;" vertex="1" parent="laneArch">
      <mxGeometry x="40" y="60" width="480" height="60" as="geometry"/>
    </mxCell>
            <mxCell id="A2" value="Apply in Catalog/Platform (Glue Catalog, Tags, Rule Engine)" style="rounded=1;whiteSpace=wrap;html=1;" vertex="1" parent="laneArch">
      <mxGeometry x="560" y="60" width="480" height="60" as="geometry"/>
    </mxCell>
            <mxCell id="A5" value="Generate Purge Candidates (Scheduler / Job)" style="rounded=1;whiteSpace=wrap;html=1;" vertex="1" parent="laneArch">
      <mxGeometry x="40" y="150" width="360" height="60" as="geometry"/>
    </mxCell>
            <mxCell id="D2" value="Legal Hold Active?" style="shape=rhombus;perimeter=rhombusPerimeter;whiteSpace=wrap;html=1;" vertex="1" parent="laneArch">
      <mxGeometry x="440" y="150" width="160" height="80" as="geometry"/>
    </mxCell>
            <mxCell id="D3" value="Expiry Reached?" style="shape=rhombus;perimeter=rhombusPerimeter;whiteSpace=wrap;html=1;" vertex="1" parent="laneArch">
      <mxGeometry x="640" y="150" width="160" height="80" as="geometry"/>
    </mxCell>
            <mxCell id="A3" value="Execute Purge (Controlled Deletion)" style="rounded=1;whiteSpace=wrap;html=1;" vertex="1" parent="laneArch">
      <mxGeometry x="840" y="150" width="300" height="60" as="geometry"/>
    </mxCell>
            <mxCell id="A4" value="Maintain Audit Logs / Evidence (Immutable)" style="rounded=1;whiteSpace=wrap;html=1;" vertex="1" parent="laneArch">
      <mxGeometry x="1180" y="150" width="300" height="60" as="geometry"/>
    </mxCell>

        <!-- Legal / Compliance nodes -->
            <mxCell id="L1" value="Issue Legal Hold (Heads-up Notification)" style="rounded=1;whiteSpace=wrap;html=1;" vertex="1" parent="laneLegal">
      <mxGeometry x="40" y="60" width="360" height="60" as="geometry"/>
    </mxCell>
            <mxCell id="L2" value="Release Legal Hold" style="rounded=1;whiteSpace=wrap;html=1;" vertex="1" parent="laneLegal">
      <mxGeometry x="420" y="60" width="240" height="60" as="geometry"/>
    </mxCell>
            <mxCell id="L3" value="Define Data Holding Obligations (DHO)" style="rounded=1;whiteSpace=wrap;html=1;" vertex="1" parent="laneLegal">
      <mxGeometry x="700" y="60" width="360" height="60" as="geometry"/>
    </mxCell>
            <mxCell id="L4" value="Heads-up for Litigation / Investigations" style="rounded=1;whiteSpace=wrap;html=1;" vertex="1" parent="laneLegal">
      <mxGeometry x="1080" y="60" width="360" height="60" as="geometry"/>
    </mxCell>

        <!-- Edges / Flow -->
            <mxCell id="e1" value="Policy baseline set" edge="1" parent="1" source="P1" target="P4" style="endArrow=block;endFill=1;rounded=1;">
      <mxGeometry relative="1" as="geometry"/>
    </mxCell>
            <mxCell id="e2" value="Policy published" edge="1" parent="1" source="P4" target="C1" style="endArrow=block;endFill=1;rounded=1;">
      <mxGeometry relative="1" as="geometry"/>
    </mxCell>
            <mxCell id="e3" edge="1" parent="1" source="C1" target="C2" style="endArrow=block;endFill=1;rounded=1;">
      <mxGeometry relative="1" as="geometry"/>
    </mxCell>
            <mxCell id="e4" edge="1" parent="1" source="C2" target="C3" style="endArrow=block;endFill=1;rounded=1;">
      <mxGeometry relative="1" as="geometry"/>
    </mxCell>
            <mxCell id="e5" edge="1" parent="1" source="C3" target="A1" style="endArrow=block;endFill=1;rounded=1;">
      <mxGeometry relative="1" as="geometry"/>
    </mxCell>
            <mxCell id="e6" edge="1" parent="1" source="A1" target="A2" style="endArrow=block;endFill=1;rounded=1;">
      <mxGeometry relative="1" as="geometry"/>
    </mxCell>

            <mxCell id="e7" value="Updated rules" edge="1" parent="1" source="P1" target="A2" style="endArrow=block;endFill=1;rounded=1;">
      <mxGeometry relative="1" as="geometry"/>
    </mxCell>
            <mxCell id="e8" value="Apply hold flag" edge="1" parent="1" source="L1" target="A2" style="endArrow=block;endFill=1;rounded=1;">
      <mxGeometry relative="1" as="geometry"/>
    </mxCell>
            <mxCell id="e9" value="Release hold" edge="1" parent="1" source="L2" target="A2" style="endArrow=block;endFill=1;rounded=1;">
      <mxGeometry relative="1" as="geometry"/>
    </mxCell>
            <mxCell id="e10" value="Override via DHO" edge="1" parent="1" source="L3" target="A2" style="endArrow=block;endFill=1;rounded=1;">
      <mxGeometry relative="1" as="geometry"/>
    </mxCell>
            <mxCell id="e11" value="Pre-emptive controls" edge="1" parent="1" source="L4" target="A2" style="endArrow=block;endFill=1;rounded=1;">
      <mxGeometry relative="1" as="geometry"/>
    </mxCell>

            <mxCell id="e12" value="Schedule/Batch" edge="1" parent="1" source="A2" target="A5" style="endArrow=block;endFill=1;rounded=1;">
      <mxGeometry relative="1" as="geometry"/>
    </mxCell>
            <mxCell id="e13" edge="1" parent="1" source="A5" target="D2" style="endArrow=block;endFill=1;rounded=1;">
      <mxGeometry relative="1" as="geometry"/>
    </mxCell>
            <mxCell id="e14" value="Yes — retain" edge="1" parent="1" source="D2" target="A2" style="endArrow=block;endFill=1;rounded=1;edgeStyle=orthogonalEdgeStyle;">
      <mxGeometry relative="1" as="geometry"/>
    </mxCell>
            <mxCell id="e15" value="No" edge="1" parent="1" source="D2" target="D3" style="endArrow=block;endFill=1;rounded=1;edgeStyle=orthogonalEdgeStyle;">
      <mxGeometry relative="1" as="geometry"/>
    </mxCell>
            <mxCell id="e16" value="No — wait" edge="1" parent="1" source="D3" target="A2" style="endArrow=block;endFill=1;rounded=1;edgeStyle=orthogonalEdgeStyle;">
      <mxGeometry relative="1" as="geometry"/>
    </mxCell>
            <mxCell id="e17" value="Yes" edge="1" parent="1" source="D3" target="C4" style="endArrow=block;endFill=1;rounded=1;edgeStyle=orthogonalEdgeStyle;">
      <mxGeometry relative="1" as="geometry"/>
    </mxCell>
            <mxCell id="e18" value="Scope sign-off" edge="1" parent="1" source="C4" target="P3" style="endArrow=block;endFill=1;rounded=1;">
      <mxGeometry relative="1" as="geometry"/>
    </mxCell>
            <mxCell id="e19" value="Approved" edge="1" parent="1" source="P3" target="A3" style="endArrow=block;endFill=1;rounded=1;">
      <mxGeometry relative="1" as="geometry"/>
    </mxCell>
            <mxCell id="e20" value="Evidence" edge="1" parent="1" source="A3" target="A4" style="endArrow=block;endFill=1;rounded=1;">
      <mxGeometry relative="1" as="geometry"/>
    </mxCell>

      </root>
    </mxGraphModel>
  </diagram>
</mxfile>
